<svg xmlns="http://www.w3.org/2000/svg" viewBox="0 0 512 512" width="512" height="512">
  <defs>
    <linearGradient id="grad1" x1="0%" y1="0%" x2="100%" y2="100%">
      <stop offset="0%" style="stop-color:#2563eb;stop-opacity:1" />
      <stop offset="100%" style="stop-color:#1d4ed8;stop-opacity:1" />
    </linearGradient>
  </defs>
  <!-- Background circle -->
  <circle cx="256" cy="256" r="240" fill="url(#grad1)"/>
  <!-- Dumbbell icon -->
  <g fill="#ffffff">
    <!-- Left weight plate outer -->
    <rect x="100" y="180" width="40" height="152" rx="8"/>
    <!-- Left weight plate inner -->
    <rect x="140" y="200" width="25" height="112" rx="4"/>
    <!-- Bar -->
    <rect x="165" y="236" width="182" height="40" rx="4"/>
    <!-- Right weight plate inner -->
    <rect x="347" y="200" width="25" height="112" rx="4"/>
    <!-- Right weight plate outer -->
    <rect x="372" y="180" width="40" height="152" rx="8"/>
  </g>
  <!-- Boot/Ruck icon below -->
  <g fill="#10b981">
    <path d="M200 380 L200 420 Q200 440 220 440 L292 440 Q312 440 312 420 L312 380 L280 380 L280 400 L232 400 L232 380 Z"/>
    <rect x="215" y="355" width="82" height="30" rx="4"/>
  </g>
</svg>
